/* XPM */
static char *result[] = {
/* columns rows colors chars-per-pixel */
"64 64 253 2 ",
"   c #3D1B15",
".  c #3A1C17",
"X  c #3B2017",
"o  c #3F1E21",
"O  c #4C1D0F",
"+  c #57160E",
"@  c #441616",
"#  c #4C1715",
"$  c #441B15",
"%  c #4C1A15",
"&  c #4B1619",
"*  c #441C1B",
"=  c #4C1C1B",
"-  c #541515",
";  c #5C1515",
":  c #531B15",
">  c #5C1B15",
",  c #53151A",
"<  c #5C161A",
"1  c #541C1B",
"2  c #5B1B1C",
"3  c #68150E",
"4  c #74150D",
"5  c #631514",
"6  c #6B1415",
"7  c #631A16",
"8  c #691A15",
"9  c #63151B",
"0  c #6B161C",
"q  c #631B1C",
"w  c #6B1B1C",
"e  c #741515",
"r  c #7B1415",
"t  c #761A15",
"y  c #72151B",
"u  c #7B151C",
"i  c #731A1C",
"p  c #7B1A1C",
"a  c #442016",
"s  c #44211B",
"d  c #4C211D",
"f  c #572216",
"g  c #53211D",
"h  c #5C221D",
"j  c #6C2216",
"k  c #62211D",
"l  c #6A211D",
"z  c #75211D",
"x  c #471A26",
"c  c #4C1D21",
"v  c #541C22",
"b  c #5C1D22",
"n  c #591826",
"m  c #5B1C2B",
"M  c #571D36",
"N  c #631623",
"B  c #6C1621",
"V  c #631C22",
"C  c #6B1B22",
"Z  c #67152C",
"A  c #641C2A",
"S  c #6C1C2B",
"D  c #741623",
"F  c #7C1523",
"G  c #741B23",
"H  c #7B1B23",
"J  c #77152A",
"K  c #741C2A",
"L  c #7C1C2A",
"P  c #691B35",
"I  c #781B36",
"U  c #4D2222",
"Y  c #482625",
"T  c #542222",
"R  c #5C2223",
"E  c #5B2926",
"W  c #5B242A",
"Q  c #55292A",
"!  c #5C2A2A",
"~  c #56312E",
"^  c #572633",
"/  c #5C3637",
"(  c #632224",
")  c #6C2124",
"_  c #64242A",
"`  c #6C232A",
"'  c #662A2A",
"]  c #732224",
"[  c #7C2223",
"{  c #73232B",
"}  c #7C232B",
"|  c #762A2D",
" . c #76312F",
".. c #6A2432",
"X. c #672938",
"o. c #742333",
"O. c #7A2432",
"+. c #7A2937",
"@. c #683839",
"#. c #743237",
"$. c #681D41",
"%. c #7B1E45",
"&. c #5A3A59",
"*. c #6B2D4E",
"=. c #782447",
"-. c #6E3A47",
";. c #783645",
":. c #7A2556",
">. c #6A424A",
",. c #71566D",
"<. c #766166",
"1. c #83100F",
"2. c #861715",
"3. c #85151C",
"4. c #8C161D",
"5. c #841A1C",
"6. c #8B1A1C",
"7. c #951914",
"8. c #93151C",
"9. c #9C151B",
"0. c #931A1D",
"q. c #9B1C1D",
"w. c #A91A1D",
"e. c #B6191A",
"r. c #8E231C",
"t. c #A4231D",
"y. c #841623",
"u. c #8D1523",
"i. c #831C23",
"p. c #8C1C24",
"a. c #88152B",
"s. c #831B2A",
"d. c #8B1C2A",
"f. c #961526",
"g. c #9C1523",
"h. c #931C24",
"j. c #9C1B23",
"k. c #931C2B",
"l. c #9B1C2A",
"z. c #881A36",
"x. c #8B1C34",
"c. c #961936",
"v. c #A21622",
"b. c #A41B24",
"n. c #AD1B22",
"m. c #A71B2A",
"M. c #B61A27",
"N. c #A31D32",
"B. c #A91C34",
"V. c #B31B34",
"C. c #B91C34",
"Z. c #822225",
"A. c #8B2626",
"S. c #84232B",
"D. c #8D222C",
"F. c #972626",
"G. c #93232B",
"H. c #9B222B",
"J. c #852334",
"K. c #8E2332",
"L. c #882939",
"P. c #932534",
"I. c #9D2333",
"U. c #972739",
"Y. c #84343B",
"T. c #A42323",
"R. c #AC222B",
"E. c #A82628",
"W. c #B72528",
"Q. c #B1342B",
"!. c #AB2334",
"~. c #A52538",
"^. c #A42A3A",
"/. c #AC2B3C",
"(. c #B32233",
"). c #B82737",
"_. c #AA3536",
"`. c #B63339",
"'. c #CB191B",
"]. c #C8231C",
"[. c #C81A27",
"{. c #D6172D",
"}. c #C61D35",
"|. c #C62628",
" X c #D52C2D",
".X c #C62738",
"XX c #D72839",
"oX c #C93438",
"OX c #D2323A",
"+X c #E73134",
"@X c #F14738",
"#X c #851C45",
"$X c #961D49",
"%X c #AD1D4D",
"&X c #862446",
"*X c #9A2A45",
"=X c #82394A",
"-X c #9C3546",
";X c #912A57",
":X c #A72A47",
">X c #B72B44",
",X c #A83346",
"<X c #B83547",
"1X c #A73A56",
"2X c #B93854",
"3X c #992866",
"4X c #A72A62",
"5X c #C82A46",
"6X c #D72946",
"7X c #C73648",
"8X c #D73548",
"9X c #C52B56",
"0X c #D72E53",
"qX c #C73A56",
"wX c #D83854",
"eX c #E32947",
"rX c #E33A4A",
"tX c #E73859",
"yX c #F13853",
"uX c #C52462",
"iX c #E83A65",
"pX c #904F56",
"aX c #B44258",
"sX c #A6505B",
"dX c #815260",
"fX c #B64F66",
"gX c #B26873",
"hX c #DA454A",
"jX c #C74457",
"kX c #CB4C53",
"lX c #D44358",
"zX c #E7494F",
"xX c #E8455B",
"cX c #EB5159",
"vX c #C94967",
"bX c #D94865",
"nX c #CF526F",
"mX c #DA5566",
"MX c #E54664",
"NX c #F34866",
"BX c #E85667",
"VX c #F65A66",
"CX c #E85674",
"ZX c #F45774",
"AX c #D26468",
"SX c #F5636A",
"DX c #A76D91",
"FX c #EF6B88",
"GX c #D296A0",
"HX c #D299A2",
"JX c #D7ACB2",
"KX c #E7CFD3",
"LX c #F8D5E7",
/* pixels */
"2 w U 1 ) a.o < v b G ` 2 ( 9 q * S G.A q 5.Q.<XN E.:X2XJ v ( & B 1 S w Z.q ~.@ ( G.q I.9 2 L b d.V n.2 L !.5.V ( 2 T 2 b ( v X.",
"G H A 1Xb o.qXY.= V } * D 1 R 9X[.1 p.z.d S 0X2 `.9 B & * V V K FX2 /.2 q 9 P = B., Y z 9 i a..XA <XR.f.s V { = P T <Xh = > ( Q ",
"0.7X2 g.K 0 H 0 ..C Z Y : d.y /.z.k.b m.T.E O.P.T y ] * o.d.u 8 1 0 D S v b b , f.k h c b 1XU.n _.` q e 1 ' , g y.b 8./.2 F.L.W ",
"I l R o.T o.2 y.1 l.6 [ R m 0 K q % C 1 H q 2 v y.U : 7XlXv > < ,X2 d 7Xd.G hXU p R F.x.K r.C F ( X y } I q 0 b * = c v L T ] _ ",
"D l.x.8X).: }.m.P q F 1 y 3.% jXzX( 6 { 2 v vX5.2 $ l.R : H ).A.O y.d A 9 & q Y V [.q w ) g.<X3.<X1 b A 5.1 ; d.U s.b D...W = j.",
"p Z.1 { 8 p h.2 /.6.V N >X1 Z _ sXc., (.K q q 6 T > b ,Xw R q w V i.1 ; * q..X'.q i /.p kXr Q.* , k.w XX> 1 =.`.( 9 q ~ * G J 2 ",
"M R V p L N %XH ) q m.rXU.1 2 C MXc.M.Q.+.2Xg : 2 2 m F BXL G }.V 0XZ : T =.d = v 9 h E s p G W N = C D F E.2 = = E J . 1 q.SX!.",
"! _ I K.iX6.: C a I.T k.S.|.q 2 _ & P NX= B b 6Xu G.N S.2 6 : #X5 h : % 8 6X[ VX(.C.x.s.j.6 1 0 w * F , _ = R.K 6XR.b G V A.d ` ",
"q - ` +.w q w 0 D.p m.v V p.J F 2 V b ` V ] c   n.V XXw `.R M.FX) z.d R D y ].J.V L 2 i d - V T XX& y P.HX: s.c w 1 K E.d 2 V 1 ",
"6 ( c : $ d.L.) * 2.q m.L.v h D ) y V _ OX= 2 U.}.d.: iX( X.Q 1 7X' R 6 b D.7 = # < S 4 ] h.C 8.b N S L tXrXV : v.N j.<Xi ; V |.",
">XD q % y.: <X1 V u u.S S.s w j.b o j.= { , I #.q.Q q G = H > Y z.C i D.c > { ~.m k d.OXk , 6.S w.1 q 3.1 I u.b q * 3X2 > h 1 G ",
"T.d z L R q N j.w # H.9 0XH T ) 6 1 ' = ( * F q I.w L 7X1 s HX1 : y V h.` 0 * * v 9X5.qX% * ( 5 w v S 8 E ^._ 1.%.K R y 2 l 9 R ",
"j.e $X2 : U.& 1 V G 2 i.% u V > 3.,Xn.z.b | q V q 3 .XL C O., 8 8 N 2 K K R R 4.v i.g L N * b F.* 9 b.S 2.G p g.q 1 & ( :XfXQ & ",
"a |.b < q v c.S.V 2.H G K P = C : <X>Xw 2 % 2 d ) ] b V g H Q b 9 - : 1 h _ H bXy h.3.h.5.~.S ~.y.p F.H.= s.x.: l.= b y @ T.z.W ",
"C 1 q 0 1 y ] U w.* 9X9XDXmX% _ FX6.  q | V x.[ -.e.2 k.U.[ $ q ^ } ).w i.@.c.b l.2 # c A & } h g.d.> d.K e #.k L * 1 d l.j hX> ",
"F > V S T 2 b , V K G f j 2XN H Z.v.: '.p H V ( H W T % w :.= Q v : y tXR h.q > : [.p g V R h = 2 T : B N.2 F.2 $ <XC jXXXK s % ",
"&Xk = < v 9 m d h w V ( Y >X] d 4Xd c.V V 5Xf = 1 = w b q 7 # ).n H u.9 I.> +.2 k.1 ' R C K B s s J /.# K.R H./ > v 2 2 2 v ^ 0 ",
"] q 1.c.: 6 _ f 1 I.Z.F * XXLX2 ^.hXjXw q.t <XS $ 3.b d _ ~.F.g   V * 8 p.v m P.S 2 v +.3.`.= : v u 5 ^.i.L.R = y g = h.( ~.u d.",
": t bXZX# N.T p x C 1 > = C V oX7.D 7.G A.= i Y ` ,XM.`.5.= nX7 B Y.3.tX4 r.@X= m.2 V 8 f u.%X5 ( , U.H i.{ j._.2 n.K BX, k.I.w ",
"u y.~.fX: C D q xX  #XH., * 5 b I p.6X` e R * q 7 l.e Z...n.v W : B & 9 KXb D.k.b % d w H.T _.T R.1 L G.* ( Z q sX* 2.< $X< T ~.",
"D q .Xs V 1Xq.U.p y yXl.% ) V.q b xXb.I.> = 5 8X^.: 2 lX2 % - j.q i - % q { e ( 8 q C : : 1 uX< l $ h.1 q H : fX= w H.> O.2 VXb ",
"V p s.qX(.+ _ e C 7 iX) G g 2XN > l 9.q.p b ) G b ( > : > i.s.N.HXq 4 W * u <Xu L.9.6XC b f 6 q ].H [.%XC.H % g 9 : { 5.8X] : xX",
"< ,Xv aX% V z.w y.bX= h w Z.X.[.1 SXz 2 6 B v u ( 0 p n N 2 8.VX2X; 0 }.2 6 r.r 9 ` { p wXP 7.h w v.- f.V m.O.&Xi > T > D 6.3..X",
"b 1 : G #.2 e p.y #X> & q o.T sX> P.T.0 V ' m G 2 ! > M % x.+.i E (.f , c d T i.kX= : L  XV uX: FX& T J V : q q lXq g % $ w 7 M.",
"& P.0 J { , $ b ` P ;.2 b } 2 Y l._ f ; 2 : > y >Xi $.q P.sXX A d { r , = R $ H qX9 X f ! 8 d _.A v i.HX1 g H R n 5 MXFX2 7.8 H ",
"= u S.cX> q ) 2 N i o.X.I B V 2 & 2XV ( : N wXM.f : N.'.bXV ( >.U D 1 - 1 6.H 2 > -X3Xk F.: _.> kXV.P.R m.1 M.6 7 ~.@ : x 8 c 5X",
"( N.$ d h.g C : > 1 s.( %.r XX  * N =.b 2 F.F.> 5 lXp p ` b 1 * 7 e.2.6 < 5Xe.I 2.*...).V.2   > { 2 R c.H.: i > 7 w > SX2 u.$ H.",
"[.= i ( 9 , w 0 q ( d w 3X}.Z.{.,.V : - * 5 > k G CX2 V 2 [ ; 7 6 C.8Xl - X.p G SXC T 8 p 6.2 $ jXu.> |.q 2 : : > d.i.vXV > y.= ",
"V 9 h.R eX1 C._ V yXK y m N 0.8.8.> | v - c <X^.d.; 5Xj.I.1 5 ( D D T p 3.i N I.i.t c n , 8 1.iXlX1X< G ;X= H ~.9 a.< > ].` jX5 ",
"; - N C w T e G G S.V   1 G w.= F 8 C 6 G A.) , * .X= 5 = 9.v i i.JXBX,X>X1Xs C.XXn.%.] H ( { : T A.> T.> 9 5XT o.n ,.b 1 q I z ",
"s.G k.6 9 /.(.> =.tX5 0 * d.q u.V G , wX& * T.pX2 8 9 9 R L.E.N.f.] V 6 l.L ,Xp.q y 0 :   2.V = 1 0 h % 2 V = MXlX- m b 6.; M.; ",
".XG [ = H A k 2 R.:.9.< S.9 q 6.aX& ( 2 K 6 C._ I f 2 pX( b.{ G $XyXL < e T.f h.p.eXq ` e a g l.1 C 3.+.v v :   C b < b q R K v ",
"p F gXy 2 y tXk.b v z u.DX).V 5.S _ &Xs.: q 8 , <.1 < CXi 1 ( I.* 0 1XJ.q ^.P sX= > 7Xn.g.p 2 l.u.R 9.2 , = * < G.2 H ! wXX g > ",
"W.W.bX$ ( 5X] 0X^.n.= R 5.G D C > >X3 K l.: {.O N qXC 6X!.1 k p.2 i.~.J _ 1 ].4. .! h., u.y.l.%./ H = 4.;.6.`.s.6 l 6.% ,X:.L.cX",
"w ! h d.b C V H ( 6 T q d 0 i.$ =.~ CX5X_.; w.gXq ; 9 ) m.W.E dXg C * g 6 R d I.2 p.(.;.b y.LXX.w # p = q g 6 _ jXG hXw 9 f A.w ",
", E.2 T 5.( u.9 2 ^ L 3 R d L.) ( : l.q : a.u : <XfXmX2 , J.C.i R v T.y.L.6 2 q = XX2 b w B.C < ' - }.n G.lX;X: _ m f c. .5 % ~.",
"j > b n.] 3.3.T.: u ] v 2 = _ , C > G 2 K.d OX$ E 8 = b h 5.8 k c C L ] 5.$ : 6XV q u P = ~.] ; Q $ r : ,XG E.A.n.5 * I v : K 5X",
"l.R w U V eX$ b F ; 2 ` : 9 C { i.% 2.+X;.k : . H g `.U.R.p w % p C H.q V.b : q 2 : b p !.L S aX  k ; ! v ! KXR O.( ; 2 : qX% 7X",
"X.V p bX= C N x B 5 h V - e.) p hX`.*X7XvXi p R n d n > H 5.( 1 = 2 q G.q e J.( 8 T ,Xq.s n K V 2 5 0 g w.4 q wX_ C C.#Xg b.D J.",
"<XV ,.v ( b w .XN +.j.y q ` e A.s.( XX@.c.p ) q : , M = : * i.>Xu.P.u > a.f w (.2 t.j 2XoX`.[ I S ~ Z.V S c.j.u H # = > k f W f ",
"d '.% g VXMXB W 9.E.w.g i L 2 1 = 8 n q w w L a.y T = n.%.. G.: oXG p W.( Z 5.P V Z +X8 V.I q < 9 > t R.6 0 - 5 y 2 : JX6.3 5..X",
"l.q 8 V : :.V.9 v ;.a.= %X3.9 - V G 2 5 &...vXC.b N w w.F B y.v p 2 8 k V R J.BX).9 = 1 >.H.& ^ { k.T 1 #.: -.cXc.o.[.8X1 K O ( ",
"=.R [ & |.&X; & 6 G.< +.V D *.  % , 8.G = m q N p.( V ) ( 2.y S.T ' N.; V Z.MXq D V 3 2 i.@., = 0 s.< S.m 2 % 5 c.2 L V D | 8 5.",
"d.X A p 7 A CX|.lXS 1 h.*XL.Z v 5 #X9X~.l.: 7.0 w = 6.1 ] ( , 1 ; y.C.2Xx H.a.C V.s.= w 7X-Xq >Xd 2 5.U.d U q L.r : } b s.L qXw ",
", 2 K u.G 2 k J c.L < I ] p.q H d ).b.1 l.z.g % { 2 q S n.y w 2 _ ; u.P.> E.Z.lX*XP A.+ 2 b W !.T N U.l.s.w < 5Xp ] H -.= t.8X1 ",
"MX<XS I Q w.> G : 0 2 I y *Xw i f u.H U.V :Xq l 0 0 b ] 5.H 9 d p ; [ q > D T 9.d.n M.$ n DXK , ;X).4X> w Q %X6 > b GXw.& 6 B >X",
"o.> d.- > 4.3Xv.xXA |.m 1 b : q.] {.b w N.L.L.& P.b.= W.q >XJ.K.i E.tX0 7.P G = W G F q & v.L.1 z.-.f ;X1X+X$ C.9 g N f   : o.( ",
"& 2 a.b D k.m.8.D q w * C.j.q 1 w '.2 ` {.R b A #.qX9 4 k.1 0.V F.: H q n.K.1 ) L k e 5X8 ; 2 C m n M.u.) = c N 9 > = 8 $ R e vX",
"lX2 2 J S 7Xm.y V.9.5 V U ` x y Z.2 > l ( 2 d L : h.i.2 > 9 > 9 B ) > =.2XCX: ZXG z.H [.W.< |.9 g h.: X.P ) 5.bX>Xe.2 9 ,X8 Z T ",
"V y m i ` mXP # S w : J & +.0 G d p ` L ' 5.rXC 1 c.h g w e | 9 p.! i ! : G X.q d.< u * ( 1X( 2 7 P 6X< i.w ' CX5.  T < ~.6X8.2 ",
"~.b b }.g * BXq B a., b 3.~.* D p.y.b J.2 NX8XtXb hXM.6 L G ] = w.3.` D K #X0 w 6.2 AXR u.` K q.0XJ.u Z.+.> SX0 1 p U / q 1 1 R.",
"i.;.<X> s.V @ L ( qXR w v y ( .XV./.p 9 5.R h V !.: 3.H |.C.+.E.Z c.r.i.C.G j.B r Z 2.V./.h d dX% 2 g i.;.wXc.q.s.} > $.; [ p.XX",
"b.y d.=  .: = = D R c ZX% , < B i 1 h.w = ! wXI.F 1 s.5XP y t p ' 0X1 q ~.m.3.< i D 2 : D.7.4.% F.g.5 > | 8.C 0 i.1 9 ) y M.l.0 ",
"= (.G wXa.= /.k F q , = 8 ;X  5XrX# k 2 R w y i 2 b 0 C 5Xy u (.U H 2 ] >Xq V M.R .XH.A u.X.d.t $ y.n.U JX6 qX< . A 8 1 # f R B ",
"v 2X7 tXd 1 u w k.# }.o.L 7XH 9 u G 1 2 ; D M @ : q r c.M.bXk X.) l.: = & G 8Xw & i ( : S.{.kXk t s p : xX[ H > $ 3.U.6 { ] rXI.",
"T * s 1 > & 2 8.& : N.5 5Xc v G 9 6 , = |.l.5.:XL s.v D i 5Xp w 4.q d ) ' V l /.2 q = < 4.7.] V P /.2 !.t ] u v.B 7X5.q (.' T ! ",
"2.V D : < ; 4.5 n %.b # _ BXp q Y.y [., C.q =X< C.  i f y.J O.*Xw l.u h.mX9 ,Xy U p.K f 1 l.f A y Y d > cX, g G R C 0 > : S > b ",
"p O.n h.+Xe.iXb B p G .X: 1 0.3 1 > & * (.T d. Xv < .X6X6.d : w n 5X= ~ 2 0 | y 1 9 XXT.2.Z.! q G q 6 9X} 2 N 0 ' u Q.3.9 v.j.D ",
"q V : $ p.] S 5 p.e = 1 l @ qX: : P.S K s.V 5.LXd Q 2 qXT ] R.w aXF.> % q ` D # : L.5  .q * 8X> v V P A C.d p.2 A >Xb vXw 1 <XP ",
" .$ 5Xq.3.q b 2 w H s % g y.Y d.i N ZXq.h 1 w.n.1 & 9 - Q M.!.N & > ( k.$ V.p.~.@ 6 S mXS = 8Xq y.x k ) f Z.2 $ u.l.A m.t , C.v ",
"( % Z.q >.R M.q @.a.2 : : = a.bXA.w =X: q q = VXp jX3.6.H F s.G = t.7 T XXq @ q y.{.O _ `.= OXy < qX% lXw ' (.2 T.Z.d.1 .XR h P ",
": 6 N h w - m 0 # 1 ~.C b - XXy.7 (.b @ ;Xv C m.).c.T y ( %Xp O.A.[.V d.W F.2 [.C B i z > D.mX5X& 1 xXZ.t 7.: h k._ q P u.M.I.p ",
"8 ).7 q i.N :.> R D ~ b > ..V 0 v s.G # 2 : 6 f.0 A.[ y.y { M.g.+X> g w R H.s % xXr F.E b . | =X1 ` b.Q H BXu.p w h y W.v O @.U ",
"1 1 u.p.d.j.lXq.8 # % s.% P.: V y.) , r R 7X` =XzXc.<Xw 1 H 1 = B q B 2 k H V (.* > H.|.% C 1 q g.y.P.L.V V : A i R j.: r v q C "
};
