/* XPM */
static char *result[] = {
/* columns rows colors chars-per-pixel */
"64 64 251 2 ",
"   c #371B3B",
".  c #3B223E",
"X  c #401B3F",
"o  c #4B253E",
"O  c #3C1D44",
"+  c #361D4A",
"@  c #3D1D4B",
"#  c #3D1E52",
"$  c #3B2244",
"%  c #362249",
"&  c #3D234C",
"*  c #3D2A4D",
"=  c #3D2453",
"-  c #3C2756",
";  c #3D2A64",
":  c #3C3770",
">  c #431E45",
",  c #431E4C",
"<  c #4A1D4A",
"1  c #441D52",
"2  c #4B1E53",
"3  c #491E5B",
"4  c #531E54",
"5  c #432345",
"6  c #482444",
"7  c #44234C",
"8  c #4B244E",
"9  c #45294C",
"0  c #4A2A4D",
"q  c #53244C",
"w  c #542A4C",
"e  c #52334C",
"r  c #442453",
"t  c #4B2454",
"y  c #452A54",
"u  c #4B2B54",
"i  c #44245B",
"p  c #4C255B",
"a  c #452A5B",
"s  c #4C2A5B",
"d  c #522555",
"f  c #522A55",
"g  c #5B2854",
"h  c #53245C",
"j  c #5B255B",
"k  c #532B5C",
"l  c #5B2B5D",
"z  c #4B3154",
"x  c #4C325C",
"c  c #523154",
"v  c #54325D",
"b  c #5B335E",
"n  c #632858",
"m  c #67335A",
"M  c #723359",
"N  c #4B1F63",
"B  c #531F63",
"V  c #442463",
"C  c #4D2562",
"Z  c #452B62",
"A  c #4D2B63",
"S  c #4B256A",
"D  c #452B6A",
"F  c #4C2B6C",
"G  c #532563",
"H  c #5B2563",
"J  c #542C63",
"K  c #5B2C64",
"L  c #53256A",
"P  c #5B256B",
"I  c #542C6B",
"U  c #5B2C6B",
"Y  c #4D3264",
"T  c #48356B",
"R  c #533264",
"E  c #5C3364",
"W  c #54326A",
"Q  c #5B326C",
"!  c #5A3A6A",
"~  c #4C2C72",
"^  c #482974",
"/  c #542B72",
"(  c #562877",
")  c #5C2C73",
"_  c #5C2D7A",
"`  c #4B3574",
"'  c #543273",
"]  c #5C3374",
"[  c #5C3B73",
"{  c #54337B",
"}  c #5D347A",
"|  c #583B7C",
" . c #622C64",
".. c #6A2B64",
"X. c #63246A",
"o. c #632C6C",
"O. c #6C2C6B",
"+. c #742B65",
"@. c #623265",
"#. c #693967",
"$. c #63336C",
"%. c #6C336A",
"&. c #643A6C",
"*. c #75356B",
"=. c #632C72",
"-. c #6B2D73",
";. c #682B7A",
":. c #722E75",
">. c #633373",
",. c #6A3374",
"<. c #633A73",
"1. c #6C3B74",
"2. c #64337B",
"3. c #6C337A",
"4. c #653A7B",
"5. c #6C3B7B",
"6. c #713C75",
"7. c #793877",
"8. c #73347B",
"9. c #753A7C",
"0. c #324571",
"q. c #4F4071",
"w. c #5A447A",
"e. c #77426A",
"r. c #694277",
"t. c #73427B",
"y. c #794878",
"u. c #79507A",
"i. c #86356C",
"p. c #853776",
"a. c #8F3175",
"s. c #84477B",
"d. c #93467A",
"f. c #8F5371",
"g. c #AF487E",
"h. c #CA4B7B",
"j. c #4E3C84",
"k. c #5A3886",
"l. c #653B83",
"z. c #683986",
"x. c #6F3389",
"c. c #783785",
"v. c #743B82",
"b. c #663B92",
"n. c #395F94",
"m. c #5B4688",
"M. c #4C518B",
"N. c #5B4795",
"B. c #5B5697",
"V. c #6B4284",
"C. c #684588",
"Z. c #784886",
"A. c #6A538A",
"S. c #7C5789",
"D. c #694A97",
"F. c #774895",
"G. c #665599",
"H. c #785595",
"J. c #726596",
"K. c #5D5AA0",
"L. c #6F55A3",
"P. c #5A65A8",
"I. c #726CAB",
"U. c #747FC2",
"Y. c #863B88",
"T. c #973887",
"R. c #854888",
"E. c #964689",
"W. c #875688",
"Q. c #965888",
"!. c #884A94",
"~. c #974893",
"^. c #875697",
"/. c #975997",
"(. c #AA5191",
"). c #8B659A",
"_. c #926E95",
"`. c #96679A",
"'. c #A3659A",
"]. c #B16C94",
"[. c #8E5AA5",
"{. c #A95AA3",
"}. c #8867A6",
"|. c #9869A5",
" X c #8675A8",
".X c #9576AA",
"XX c #996EB2",
"oX c #AA67A7",
"OX c #A976A9",
"+X c #B478AA",
"@X c #A679B3",
"#X c #B370B1",
"$X c #CD498D",
"%X c #CB6E9A",
"&X c #E26A9B",
"*X c #C771B1",
"=X c #9F7DC2",
"-X c #768BBB",
";X c #6B98D2",
":X c #77B7E5",
">X c #B7888A",
",X c #9585B8",
"<X c #A980A4",
"1X c #BA85AC",
"2X c #A985B8",
"3X c #B989B9",
"4X c #B796BA",
"5X c #C48590",
"6X c #C589B7",
"7X c #DB8CB4",
"8X c #C893BC",
"9X c #E898AB",
"0X c #8484C1",
"qX c #9A98C8",
"wX c #B68BC4",
"eX c #A797C8",
"rX c #B796C3",
"tX c #B19CD7",
"yX c #92ABD8",
"uX c #B3ABD9",
"iX c #98AFE6",
"pX c #B5B2E6",
"aX c #CB8BC8",
"sX c #C798C7",
"dX c #D297C8",
"fX c #E495CC",
"gX c #CBA6CB",
"hX c #D6A4CC",
"jX c #C9A8D6",
"kX c #D8A9D7",
"lX c #C9B6D8",
"zX c #DAB7D7",
"xX c #EBAED3",
"cX c #E5B7DB",
"vX c #DBB9E4",
"bX c #E5BCE4",
"nX c #E7B8E8",
"mX c #F6B8EC",
"MX c #92C5F2",
"NX c #B0C5EA",
"BX c #D1C0DB",
"VX c #F0CDDA",
"CX c #D2CCF2",
"ZX c #E9CAE7",
"AX c #F5C8E9",
"SX c #F3D4E9",
"DX c #F5C7F3",
"FX c #ECD5F4",
"GX c #FAD7F7",
"HX c #E6EBFE",
"JX c #FCE6FC",
/* pixels */
"H Z Q J ] XXi D R.F.p C h & Q s p [ G J C _ J c.R 3.E P b..Xv #.sXH.y y kXO.s _ f.AXY.E 7 p R 1.J r.>.V.x CXA f I <.r R s >.t W.",
"Q.- 1.r h <.h h 1XJ u sXJ P 6Xp k.BX[ 3 D.qX8 {.'.o.9 (.FX] /.*.M J OX<.b W U JXu E f.] K z.y . U E 3Xm U 9 W o.^.<.Z <XB.a g 7.",
"= @.4XH E A =.r b.y.| #.- V.-.l Z = M.s +XC G.i A k G.oX&X/ XX`.J A ZXi x t.C %X} t ) Q zXQ k.w.` p ).y = v p T  .+X6 /.Y / Q $ ",
"J K a J .XC S s R y.p o.l s o.:.p.4.a J u ` x (.).-.u y A 5.:.E s 6. .= = h = 1 a s C zXk M 9 W.#.) %.F r i A.y % & u u $.t 9 F ",
"U 5 h V.O.A V p $Xp ~ t.r ' W.rX5.u =.J k $.z a s s {.-.~ X.e 0X` { F s ) = sX~ a S.s 2 GXJ t.W x.V = y 0 J @.<.sXuXJ o 0 s i gX",
"U E U p X.U / s h r l.R I FX1 s b r I S 9.E &.{ A f r s A & u W.2.] F W S ' U w.F.i s W.s M.(.4.h U & a H.i & 9 - r a } 9 s Z Z ",
"p i J f @XJ ! p C K W.s /.E Q J K E & f i s F.>.p.a !.t.L.CXJ.j p L Q .X~ Q E =.~.J E r.r #.gXu 4X! @ & D.v u &.V J p %Xs - } a ",
"C R.l $ * eX1 a.U [.K H E E h g G t , G C u E.D.h tX!.o A x y A 9.Q t J Z { Z R t.:.].GXy W | ' E U & W n C / r | R k y C W.J i ",
"$.Y.+X9.8 u :.1 d q ! W u X.= 2XQ CXu ) 8 t n j &.C 5.p U F A V.t J h 1 R f R.A p Y 8 . z R.u M.$.W , Y _.u.& 4X8 r h `.O./   y ",
"T.r 2XGX4.K J 1 Z G u F p x E a } I vXT C +X5Xs V 1 V.*.e A f 7 } u i t iXk { C ! 1 = l s t.r J 7 zX..r ^ D.Y [ o.k B.y & * Z i ",
"C b.p t J =.h G W ^.W.|.1 k U  .L 8 a s i G.R l #.K  .Y.z { s E E i Z s J u 3.a u f ; & i 2.U b., i M ] W W = dX9.p s s a * D b.",
"X.( @ A - ] E kX#Xg a :XQ t f 9X(.0.7.l < yX) @.I s gXR., , K U <.` h    .{ 8 . y v - p & y r { 5 <.u i C u A.]  .W.$.i i R 2.k.",
"V.j H u 5 ..bX;.^.=.7 I & I p.s.k s XXC |.U j.1.E p { = ) s R p 9 wX3.H v W ).b.J T o.rXXXl._.T - a kXA 2.I @.` t K i.J + l.x ^ ",
"MXZ.H U > 2.@.r v 8 l *.=.o.GX1 ] 8 0 1.p 3XE c $.a 7 &.@ F C.r.C.K l .X- _ Q T E 7 ,./.B E y ~ & 8 p Y = o.t # $ h 2 7 r ].o.` ",
"p.u E ! !.+.h t `.K { -.s yXC bX& E u s $.h &X! f I t uXU J 7.V E , _.Z./.C.I ;Xf.9 t s L y 6X .i /.i ;.G 2 #.9.J.L U V (.p = + ",
"b ..W 7 ( r 7.K 8.8 =.] r U Q s t  .C q O.L Q.a W X.d u r f O d J s 9.nXp & 5 l.# y.*   l.h L %.i { L.A ].qXa } F.aXo.}.wXp i E ",
"Z.+X=.P 7 G k s # e.P.2X- W t $.K cX7 o.^ u ;.C u NXC p i 4.) *.k.9 VXD FXZ 9.r J i 7 A T.f ,X5 C.E [ x O - i u s y.8.t J kX- H ",
"{ 7.1Xq Z.h 5.V.s >.5 Z !.G., b.>.dXK D.P s & J t O.P 8 r G { p - F.C m W .XOXF t sX,.7 = J < R D G 3.] P.P % W.7 v t t a 1XQ.y ",
"R ] !.V 4 h U k 4 i O s l.J 8 > W >.' F $.k. .jXd 6.h R.7 U I ( H V.i x 8 s G 1 p z.y 8 R g o.n O.s r F.k ! ..v.a dXw ` h 7 BX>.",
"Z l 2 I #X>.D.8Xo.$ _ @ 7 X.yX9 } } 7 J K l kXE * U J ,.t K t p >.v C t eXu 6 /.*.2 1 * O i ,.] 1.3.%.b 9 r p = O.s y D.8 C !.i ",
"8 P nX!.% # P Z.Q O r  .Y G ] L *.K p 7 i 8 F.4X .t k 9XJ >.ZXU L v .Xu x d.8 t s / r 1.cXz 4.JX:./ V.8 J f s 6.G h K.} u 7X8.h ",
"] 7 B N.C t L Y.R J 8 W.7 % G <.p.7 s ,.u h p a Q rX> #X{ v D.t 8 j m.H i ; U GX1X/ F.f 7 u r F E 9 J 1 h 8 ( (.i /.l.I L N.Z.oX",
"J }.$ aXp E 7 `.H  ./.] o.P -  .k.7.5 , E DX9 W.o.dXBXU Q @ S l 3.k y W U Z.w.J E J s.h ZXeXl 2.F.>.h J ^.G 6.3 >Xu 7 G o.G g Z.",
"h o.I ; &.r U 2 & i j D.>...8 J J 6 h Q . a } E A #X/ G K A s J > oXd./ Y.F.hX$.#Xk.2.o.G 9. .> k 7 kXK * 1.d J *XI +X0 5Xt.E u ",
"U t 6.& /.A ' _.U ].:.B J = : XX2X- p.L r a C.f +.$.i p p O.p I u y W.t t s r u l.5 U w rXu l -.8X) y J 7 u K hXW y.uXy Q K t t ",
"+ 5.h >.U y J %Xa / l ] h s F U sXt . h !.) f.s N.Z.d o.fXE p k y.%.sXFX7 h DXJ ..T e.g s 3.aX/ . s O aXE s W y W.C.C.p uX- !.8.",
"[.G ' s U F.~ J >._ O N.z.k.{.s <X1 o.U ] I V } / J v.s h @XC 1 * j.D ] r s 2.r ( s l 2 $.#.s W w.k 3XJ u.l.' y F a jX, ].t / r ",
"n , Q.E d O.:.y $.A.K t * `.W { v.,.4 DXG <.  W 9 6.i C p U y t kXR >.[.G.~.U C X._.Z.h 8.<.& @X2 rX$.k D.eXl 1.U k >.i S.j ' :.",
"U +.J Z.;.Q.U 1.X.U 3Xh C i s  .i C X.AX8 H h u e.a ] gXG 3X..f >.V.y.t W.*.h 6 $ t C.xX=.) k <.f kXQ $.O.i.d l !.2X{ ,X4X#.6.+.",
"Q g y U W i i /.8.!.i ,.DXt s S.9 A j A y H j D.l *.3.W J ^.nXH.4XJ ,.sXT.@.s t J >.].h & j.M.u W.W z.G h *.r.f 0 0 & R A R S  X",
"3.P V I J f A $.E i 5.`.f.^.O G f p 3XI 8Xf F c.b.d K o.S U s +Xo.8 1 +Xv.s D.Y.G 5.j.h iX<.C # $.GXE t , k @X7 E Q.OXv.=.H t cX",
"7 R t E.$.3.i r /.Q.2Xs D sXv H % H v /.#.a.k a.n C.k L P.Q.%.r 1 F. Xt A i H F.s ^.s i u g ^.b.yXs %.4 s t H i 9 b =.`.I & G A ",
"I 1.S ~./ 7 `.{ # >.t G m.| t x J L u J W.5 M.R { Z W.f i l.= M.@X3XX.o.U b HXQ l G i.2.i.=.r.5 t...6 ~.p 7 s d s eX1 l A.r  .J ",
"s 1 U 5 t 2XSXr ) ^.+XG r ..q J ( M 2  .FXs l 3.f /.r W bXS.J O 8 v ZXuXu L.2 2.m.p f i s 3.x s *.z.|.0 r.U t.8XU p r.z Z !.  5 ",
"h >., >.J ' SX9.J I $.F t Z <.s FXG u W P f l.K u @ t sX: K { [ 9 9.l r <.f.C ^.u G *.l.I f u 6 }.V.}.k   ] 6.C.u 6 D.u {.v > b ",
":.3 t 8  .* u.1.k '.2 S.S y.k i 7Xt | t.k Z.1.] R p K s K p s E K ZX: G - G Z.bXU :.F.l dXGX>./.c.& s R k / ) 5.u K z y s Q 7 b ",
"4 r ) / 5 p D r 1XC F.G z.I d AX{ MXr E u #.t h & /.7.t K h $ 8 0 CXq.Q.3 O E u 2..XJ G # J qXI u a J GXJ ;.A c.r Q N.& kXI H t ",
"f s f H ) 2XL Q /.Y.G G.n.p 8 1 = L !.OXf p G.u h k AXh p O &.& 6Xs p 5.@ t K W 0 u k 0  XCX7.u W.f y y y 2 5.E W.U K = o.r i r ",
"p Z BX|.l.w 7 i u L R.c.u._ kX X*.n ' ( K H q & ] d 7 R.^.i g j ~.| ;XU [.n G p mXu ;.d = 7 ; s %.X.d I.2 y J - M.k.#.rXu.l s Z ",
"8.H gXo.7 V.b.i V @ H 7.c.5.GX= p , d.Z.& 9 / G y K zXb.Q J t ^.s U k.- S.D.+.p ~.3.jXh / $.X.h 5 C R.d.&.l.C 4.=.K $.q &.t r.).",
"s C A u F.) =.I h E r r - J N.( E.d 8 @Xp $.T @.1X9.+X4 6.J sXL.O.W k.s OXr k . lX1. .C.Y lXK D.s U h ^ sXG 1 k Q E ] I p 3 O.5.",
"t 9 b ^.m 8 $X5 :.s @ C H C = w.#XG *XMXu Z.n +XP E p d ZXFXp 7 u zXg Z.r =.a.R V.^.U s ] f h r I a./ r ] G t @ @ ;XU jXk.vXd zX",
"t k R z i p $.0 & ,.(.m.a R s > r.J U y h.m.% >.lXJXi *.1 r 7 E.8 J.o.> mXf l `.J 9 7...P y } p & & i m C 1 6.dX| 5 r u 1.p G l ",
"s / J %XE y 2X! r 1 H d F = C zX8 D.G FX$.T x S.z rX&.@.4 @ N C o.dXs.u 5 7 A bX7 Z.C.I.v  X&.t r.k.$ s.} a.C j V s s I C $ { t ",
"!.D G <.C @ p H >.1 t r k i l E H E R.s 7 s i r b z.8 6 (.o W D.u B.u p 8 U J y ] l ) F t % h t J y.R sXt , pXf t A 8Xg l.i >.n ",
"c.r O b v.5.k.{ r dX8 %.9 t *.f D.R.s 7 p.S 8 i t h GXI.8X_ 2X=.G J W '.& J A h C ] I >.t C.l.* %.i.W.K  Xp O xXW d.s a 3.A 2Xs ",
"k.r t C J * , <.} {.Z ( 9 J r d   s U & p.(.J % R.* $ GXAXh t E y.O f s n d u 9 V Z./ ] I G u y i G - u R.s s n s.}.] b 5.k 7 , ",
"L.d j r !.d p ; r ).s c.] I z.8 v J -.} o.y.'.H =.kXoXR $.W k f } & GXk R i h p W ^.#.h p A #./.k } ~.E S 9 F.8 h t  .W NXY.2 d ",
"a z.E T r P s k.! dXk G G.k Z.Q p.y A.h.G.|.Z.7 m F.8 , u l & U $.8 I r.x a.8 W. .FXs.t - qXZ ( u 5.J.z.|.<.&.j t A 9.l.3X= d =.",
"r u r t <.' r P $ i.< R 9 bXt f C.<./ s D   qX0 : cXt.}.J y L e.dXV r r ` } 1 Z.p p @.b.A d.| p.9 |...C J h E A Z h O N ~ U 7 {.",
"4.u { C J G p 2.I Z.d xXE [ W 9 c.oXQ U | % ) @.r ) u #.r  .2X0 E k.J h J * pXu t Q $ 3.I =.n.d P d , K K rX; u i 1 ( S.h }.z 8 ",
"=.7.1 d s Z.P 2.1 k @XJ y.J ..}.u j @Xh U.K 7 g.  m.~ @.8.E 6 $.p 3 J o.G $ Z & GXr s a GXOX/ p.AXh k l sXr pXs Q r $ W #XD u t ",
"j S.u B.J s.(.C I c r.p 8 J U G S $Xa e.d p.$.<.8 U k gX&.b = (.n h *.X.$.P r y.cXH Z.DX| ..m 7 @.C = D.j AXC.U u SXt y.W ' E  .",
"<.k.' 3 *X~ I y u 1.>.Q W % P GXA @ L Z.o.2Xl.U y *.k.l G h G Q U 2.K k.s o.<.K f dX5 2 u xXW.% C y X.C u t >.r } h Q.m 7X/ 5 p ",
", gX4 N F ' u @ 8.G Z.V.VXM p r b.A 7 DXi , sX& L 9 O l #.% ).7 P k 8 h 5 G.I f y x l m i (.9 h x.,X, d ,.p p t.h E 1 E Q k ~ B.",
"t L P A p D h l $.l.j ] u & s r.m.j J u G G $.F @.= E.N.pXU w.7Xx W 2.6.p J j :.u a.I y X.u u r ; h V n C k '.T.m n O.FXa 3.>.r ",
"D.i mXl.K Z 3.[.4.H.f h s G y J u A G W :.p.XXoX; & 8 y l !.n ,.p ] a.7 W m.X Y./ i h 1.J j k / 7 E t u.4XFXhXg R 8 F.U cXc T.GX",
"t k j.s u 8 @ ^.B N & J `.l !.K U k a s A = E u D.h y.8 D.B 2.r - ;Xh @ G s P s J 7 $.&.u 4 W $.r.d.|.t W s t u X.oX= u J jXJ &.",
">.Y.r.3.s.U @. .c.C = R y K Q I.D G a s E R v S U 6.Y.C M.& +Xs y p p $.r @Xy z.p wXt I 8XJ 9.h G 7 u 5.JX8 d #.|.G 9 k H i 6XeX",
"f Q r V o.q f.R.lXF a ^.O ZXr r.s 8 b 1 C.<.D d T.s.7 > y A R C A ,.$.w.+  .t H ; -Xk.&.Q.i u 3.K gXW r 6 t K  Xs 0 s =.K u s.uX",
"s F o.u t d , X.! 4Xi 1 K c.| $.D.1 d o.u [ J Z.;.P 5 f i v.D &.5 0.b u *.@XQ l.g t s d u v J v g d 8 K h f k K &.d *.f M S.p #X",
">.3.!.& s -.'.7.E <.) SXH 7 K i p 4 7 Z fX> u eXE } R.q 7 {.i V l  .OXv E } S b.7 % d / C l  .4.,.f 8.7.v r p t @.FXu   l.U e p ",
"p # = J i s.'.u y y c.Q *.=X-X3.A G.h i i.v :XC.p d L.x.s u ZXN.D.c f k O J L p o.I u 8 Q L E s K #.R J U L d $.1XC f t R D JXr.",
"&Xf U l t j J x R S.n.2 2 tXL Q u.z I.oX#.$.2 8X7 xX!., u & %.0 s.< Z.) G.z.l.$ _.C w.p p + ; $ s s 9 q.E 5 8 Z O.9 i.t h 7 J N."
};
