/* XPM */
static char *result[] = {
/* columns rows colors chars-per-pixel */
"64 64 254 2 ",
"   c #3C192B",
".  c #3B1B32",
"X  c #451826",
"o  c #45152B",
"O  c #4C152D",
"+  c #441A2C",
"@  c #4B1A2C",
"#  c #53152D",
"$  c #541A2D",
"%  c #5A182C",
"&  c #560D38",
"*  c #451633",
"=  c #4C1534",
"-  c #441C34",
";  c #4B1B34",
":  c #4B153A",
">  c #46193C",
",  c #4C1B3B",
"<  c #541534",
"1  c #5B1534",
"2  c #531B34",
"3  c #5B1B34",
"4  c #54153B",
"5  c #5B153C",
"6  c #541B3B",
"7  c #5C1B3B",
"8  c #73142E",
"9  c #670E38",
"0  c #631435",
"q  c #6A1635",
"w  c #631B35",
"e  c #63153C",
"r  c #6B153C",
"t  c #631B3C",
"y  c #6B1B3C",
"u  c #73153C",
"i  c #7A163A",
"p  c #721B3D",
"a  c #4B212D",
"s  c #472236",
"d  c #4C213C",
"f  c #532135",
"g  c #592336",
"h  c #54223C",
"j  c #5C223B",
"k  c #63223C",
"l  c #68223A",
"z  c #73233E",
"x  c #3E1D43",
"c  c #580E42",
"v  c #4D1B41",
"b  c #4C1845",
"n  c #541643",
"m  c #5C1542",
"M  c #531B43",
"N  c #5C1C43",
"B  c #59164A",
"V  c #541D4A",
"C  c #5C1B4B",
"Z  c #4B1B54",
"A  c #581C54",
"S  c #780E4B",
"D  c #641542",
"F  c #6B1543",
"G  c #641B43",
"H  c #6B1B43",
"J  c #63144A",
"K  c #6B164A",
"L  c #641B4B",
"P  c #6C1C4B",
"I  c #741544",
"U  c #7B1543",
"Y  c #731B44",
"T  c #7A1B44",
"R  c #75154C",
"E  c #7C154A",
"W  c #741B4B",
"Q  c #7B1C4B",
"!  c #641C53",
"~  c #641956",
"^  c #6C1C53",
"/  c #6C1D5B",
"(  c #781654",
")  c #741C53",
"_  c #7B1C53",
"`  c #741D5C",
"'  c #7B1D5C",
"]  c #4B2244",
"[  c #542143",
"{  c #5C2344",
"}  c #582946",
"|  c #5E224D",
" . c #5F3045",
".. c #4B2456",
"X. c #592456",
"o. c #5C245B",
"O. c #642243",
"+. c #6C2244",
"@. c #682A47",
"#. c #63224B",
"$. c #6B234B",
"%. c #722245",
"&. c #74234A",
"*. c #7C224A",
"=. c #782648",
"-. c #642353",
";. c #6C2253",
":. c #65235B",
">. c #6B265B",
",. c #742454",
"<. c #7C2253",
"1. c #792A54",
"2. c #74235B",
"3. c #7C235C",
"4. c #6F3659",
"5. c #5C1D60",
"6. c #661E62",
"7. c #751D64",
"8. c #6C1D71",
"9. c #592665",
"0. c #50316F",
"q. c #5B2977",
"w. c #642464",
"e. c #692768",
"r. c #782766",
"t. c #74236B",
"y. c #7B236C",
"u. c #79326A",
"i. c #6A2875",
"p. c #782975",
"a. c #673678",
"s. c #7A3579",
"d. c #87193D",
"f. c #A1193F",
"g. c #90213B",
"h. c #831643",
"j. c #831B44",
"k. c #87174A",
"l. c #831B4B",
"z. c #8B1B4C",
"x. c #951A48",
"c. c #831657",
"v. c #821B54",
"b. c #8B1C53",
"n. c #841C5B",
"m. c #8D1C5B",
"M. c #931D54",
"N. c #981B59",
"B. c #A91D4B",
"V. c #A61C59",
"C. c #B71857",
"Z. c #852349",
"A. c #95224D",
"S. c #832254",
"D. c #8C2254",
"F. c #84235B",
"G. c #8A235B",
"H. c #862A58",
"J. c #8B2A5D",
"K. c #962358",
"L. c #B3264F",
"P. c #A7235C",
"I. c #891B64",
"U. c #981A66",
"Y. c #A81A66",
"T. c #B71B64",
"R. c #AB1C74",
"E. c #842464",
"W. c #892866",
"Q. c #832A6B",
"!. c #932363",
"~. c #982768",
"^. c #81326D",
"/. c #94346A",
"(. c #9C326C",
"). c #862875",
"_. c #982876",
"`. c #863874",
"'. c #983478",
"]. c #A42768",
"[. c #B92D68",
"{. c #A7336B",
"}. c #A52B77",
"|. c #B52A72",
" X c #A63778",
".X c #B73779",
"XX c #D11357",
"oX c #C02153",
"OX c #D31767",
"+X c #CE2F71",
"@X c #E23476",
"#X c #984172",
"$X c #A6447A",
"%X c #B7447D",
"&X c #D24577",
"*X c #E74568",
"=X c #5C3C8C",
"-X c #762E85",
";X c #693786",
":X c #763988",
">X c #763E95",
",X c #794489",
"<X c #6E4A96",
"1X c #774795",
"2X c #7755A3",
"3X c #8F2E88",
"4X c #853C87",
"5X c #993987",
"6X c #B22D8A",
"7X c #A93985",
"8X c #B63986",
"9X c #C83B8A",
"0X c #D5388A",
"qX c #874489",
"wX c #914D93",
"eX c #975999",
"rX c #A94587",
"tX c #B74687",
"yX c #B94894",
"uX c #AF5094",
"iX c #BB5898",
"pX c #B46299",
"aX c #9157A6",
"sX c #B15BA5",
"dX c #946AAA",
"fX c #B56CAB",
"gX c #C54889",
"hX c #D9488B",
"jX c #CA528C",
"kX c #C64B95",
"lX c #D84898",
"zX c #C8579B",
"xX c #D6559B",
"cX c #E85094",
"vX c #CB639C",
"bX c #D24EA1",
"nX c #CB59A4",
"mX c #D55CA8",
"MX c #E357A9",
"NX c #C967A7",
"BX c #D565A8",
"VX c #CD72AF",
"CX c #D86AB4",
"ZX c #D876B7",
"AX c #E465A8",
"SX c #E675B7",
"DX c #ED72B6",
"FX c #A47AC3",
"GX c #DC7CC4",
"HX c #D884B5",
"JX c #E988BD",
"KX c #EF8DC7",
"LX c #EA92C7",
"PX c #EE9BD2",
/* pixels */
"v.$.W 7 +.S.>.6X! @.d 4.;.z.P c.5X}.k H i S.'.OXW f P W ' V.W n _.*.V !.D gXj ] p.7.` &.yXz S.6 6 %.4X$.L H t t 7.<.rX+X@.`.O.W ",
"#.M.< 5XF.=.< j 7 G W D H 2XQ ) k #Xq kX[ 3.T.e @XQ.#.S.NXE.e n m KX0XF.-X@.uX7 l M < Y f S.3 uXK ~ { ,.Y.D.k. XD.R G M y yX&.H ",
"_ / 7 i.) N K zXV.Y.<.D z.7 <.F.D q J.| NXB dX7 #.-.e T 6.2 p.l.e M D uXO.; G t $.E t %.; O.+ v.#.` Q.hX^ 6 Q K Z.<X8.M $.G P %X",
"g p 5 x.w xXe O.H LX^ i #.+.M.P Y 0 p K y ^ n N , 0 4 ! m.|.7 !.D E.M { _ r. X4 * 6 5 G.l U S.V { : *.f C n.6 M n.^ U 3 p @ K 1 ",
"H K.}.B A .XD JXqX1 ; ! ..7 l.@.z.= { j u f $.#.6.5X>.j l.r t N.F A sX#X3 < H.t K.M L 2 2 G }.;.y '.-.y 6 ^ H.C G AXM.7 M.%.1 2 ",
"y ).^ N ~ 7XK @  X5 / x.{ x.y.:.: % ..a J.w OXH N.CX'.!.1 tXQ W.6 # =XHXCXR.@.{ L gX+.uXU f $.j 6.R R 9XQ 6 ;.H ~.#.i.gXC B.;./ ",
"Y n Y [.tX< n 5 I h.; xXE C , h `.LXH M @ f C.^.E $.i $ ) Y.6 7 5 ; } i.LXG <XN K.dXY.} -.y 7 H [ %.H * , L G W 6 V.3 - x.!./ 7 ",
"$.iXY k.h.k.'.) m G &.; 4XN S...].K w.O E.e.OX& E :X:XE C 5 ; ].} $.VX0XB.mXK ~.6 e.g :.6 $.| <X@.5.zXu.D 7 rX$ *.P.Q.&.I.@.|.%.",
"! L p.P 0X^ ( rX6 5 BX>.Z.A.,.~ M '.F ].; $.iX2.[ P.5X}.6XS.+ ^ u.!.w.} F.#.6 ;.l.#...] k SX7XL ! Q.7 B { . ` - - , K &X4 j rXT ",
"I.G :XH , 4 _.9 ~.N 6 D p.=X%.2 j 7 D W.V . w.7XU bXm.].3 : -.E ;.K.E./ 1 2XV.> BX,.,  .h A.t G + 8Xx.7 _ ; 5 #.M !.. 4 F.5 V L ",
"3 D $ W v 5 3XZ < ZXe.L + 1 y Y kXw.: %.$X{ (.2 uX!.o.E.y Q 7 ; = i 7 / h K { G V Y v , >.H $X6 M Y.w.r.2 e K qXhXE s FX&.d 8.s ",
"L k W Q.e.2Xz.%.V.5 % ) O.y BX@.%.;.X.P.W.#.; = D s.W.C G G < ,.L jX6 <.' |.KXhXn i HXs.( h N r m h w.I.: 1X_ , r.T ,.tXZ 5X] Q ",
"b.# BXt.H eXK o.: 2 .XB 5 }.#.H 1 D $.7 ' p.r.T &.W < @ i.hX' @ #.Q.z.N :X4 6 r M.o 0.t + j `.N.= 2   Q.oXzX4 r.; ).w.; , eXR MX",
"2.| H : R {.j P q.E b fX5 ( H 6 c.n.7XF.j } ~._ < L s.H r + F NXH p w 7 V.j.; M m.gXv.] J., Q p K - > = : ; v.Z.,.; hXJ H F i AX",
"j.h ) +XF.W <X5 K.u (.r W ; ~ P Y :X[ f - w.7X:./.H h aX, 2.H H j @ @ , M : C G.h &.+ o e = !.v.MXV D eX6 / u 3 l.CXW &.,.j H { ",
"K ( W.b _ W : W.yX: rX@ t N ; 7.*.BXz.T z./ +.$.> G.tXDX; > _.2 e Z.$./.5 yX0.v ,.PXh %.N W I h G j @ %.> ; aXO.f h :XN v L 9.7 ",
"I.H 2XzXd y P ) 5 Q D.< L.3 >.xXG P   d 7 W.m 5 S j v.1 5 9X6 q.W.p.f D 2 @.4 U O.+ j P y _ + yXf.nX>XG.O.$.&.t j 6 > ;.|.5 (.5 ",
"7 < ; (...uXBXU.!.% t 2 & < 7. X6 t 8X/ q zXQ b n yX).,.6 G.3.; $ n ~.$.+X  N X 6 t 5 h v.&.zXLX6 = qX@ 7X1.i.# * |.9.} x   Q.W ",
"4X5 N.2 5 _.z.; t.b w 1 ! y +X0.$ A D l.b.S w y XXP H : j.).Q v.6 gXY f /.qXk.u ,.m m M 4Xe D.! 9.r Y 1 5 [ 7 r.w.SXh M e 3X4 (.",
"I.1.wXH L e.t [ 1 :.K.h t.p 3 6.7 ;Xq r I f - , 7XqXH 2 3 l _.m + y G g V F.  r #.n 3 ` ).K 8 7.~   2 - ,.. [ > 8 I.W k cXV G y ",
"K 4X; wXW 2 k 2.^ V P 4 M K.+ cXB.BXL + b.~.Q.~ E % <XH Y r 2 `.E.M + ].G i.> l.G 2 Y l.G ! # 0 lXG 6 8Xb * !.@XX ~ , ~ ..< 3.w.",
"B D  XGX$ -.B.p ].K.k G ;.+ .X XN.G e.rXW.y ,.j 6 |.m.L.KX/.; v 0 $.H ^ 3 7 gXGXo _.M 7X  ..P i.Z.} ] 1 , ; % B.6 %.V V # | o 7 ",
"D.< = G , VX .K.u p.q Z.M.CXM C 5 ; = 7 ZX} e f ~ M %.gXZ.0XW v q.T t .X5 -.  2 @ D ) + s @.r ; W @ y 7 ;XC s > l.iX2.  X 0 l n.",
"y qXi.9 N +XA w.a j.2 qXtXe.pXe.z.y @ d.. ,.L 7 N ,.b.M.NX2 t P.W 3 z.! D 5 6 BXK.|.b 7 :.y Z W.0 F.^ 7 3.L G U V = 7.O.7 5 ; ].",
"2 2 r o.CXq.S.[ #X7 { p x.|.f W t g K A.N 6 : Z.o e., ( |.N.; LXH l.< /.1 + $ VXt w 1 7 G j t.%X7 (.P { n i e x.5 # y # N tXp.; ",
"B H G s.; $.K L m kXy   h.u '.q 0 2.u 3.D ^ . $ 3Xv.%.l.< Y.+X .wXr.$ V gXQ , 9X(.  T D.cX[.Q.-., -.2 i ` w @ ].F F b { #.B $.$ ",
"(.3 ; 5 U.N.Y.k N P { v '.h G B.K ; J 6 > W {.5 o L #.H I.:.C.p.VXt 7.W N :.E.S W ! ^.A 3 v.gXF v.3 n K.:.U 2 M Q + G sX;.5 e < ",
"= V B eXQ.t 2 %.< <.L |.X.P t 3 t r 3 W x.:.+Xw P j W Y q ~ 1 ).dX5.` -.,.8X5 zXQ CXj.K.T vXm I ZX` 1XG.y p Y 2.1 v.yXW.q.i.iXi.",
"e   @ j ; 1Xu W 4 Y r :X> =XH _.j R i..X}._.m % 6 o.~ M `.e Y t tXU.4 wX, . h tX:Xr.7 z.!.U j.- E.< ; vXX.5 M.8X3 + xXx.G * y G ",
"r XX< | ^ J #.2 ^.G 3 $.@., d K w :.b.r ;XD F.;._.S._.' t T.L > n.` F t 5Xy.t 1 i.1 y <X(._ #.e.X.y.Q < D E i.T hXk M kX< v., #.",
"U 5 6X6 0 ` yXC qXp J.e V +XiXh J.a ^ U.& 2 ; V.i o., #.K L e a C.M g.3.%.# D   ).B @ w (.2 6 I.;.7 iX$.z ^ M.v.q eXH 2 = { _ H ",
";.N `.@ 2 6 G 1 g %.$ j f o.gX2 t { C G q 7 1 7 <.2 ^ m.{ [.~.#.X.7X>.2 j H 2 :Xu.+XV S.G r.1XF.'.< 3 < H +.Y 7 0 (.2 L n.7.n.H.",
"3 D t tXy m.! i F 2 /.+.5 ..O S.t _ P k P.~.; {.N 6 I L 2.sXT.3 a aXe ; N v.2 w ~.*.m.J.W.4 3 J.z G 6 t | j ].y C  .G gXY - ,X%.",
"2 +.l.y fX, _ p vX' / W 2 +.I k BXs D.K u.- c.u i p a.r @ 2 aX#.6 + %.6 w.W M 2 { l. Xt C.w qX3.0 [ t ; y s 1 ; =.j 7 - l.Z.= *.",
", _.= t.!.0 G., F G fXW (.N v.X 6 O.t I.MX$.bXD.9.* 9.W.2 < J O =.:.L.#.= X -X5 yXt h.q , .Xm.w k K.g W F W H b.w.t - 3 9.s O 0X",
"5 : B W o u 2 ! ,.n.@ I.O.3X+.@ a.F {.%.U r o.t % .X Xn.lXl.n.* l [ G C R SXv.U G i k U %Xm.O.W.q f d tX0 X < W.2.2 0 .XY ] 3.) ",
"mX} o .XL.Y m L -.t |.F z.U 7 G <.&.$.M y 6 * c.O.N j 2 k.LXR 0 i @ 6 W.rX).> 7 2.L (.E < e.+ 2 i.t W.x. XQ g + uX+ M F 7 Y a Y ",
"v KXR.< NXo.D 2 ; ^.T CXBXu 2 T ; h O.5 D.b 2 ; 5 p L.L Z.Q ^ O. Xk VXX.^ 7 +XN o.aX:XpXp.h.c w., #.= 1 @ o.+ <.:X{.S.! 8.n '.y ",
"8XXX,.Q.o v.q 3 7.zX+ f S.2 e.0 OX6X; b.E.6 ! ` NX[ U P B 8 T W lX% y 6 U + 6 , tXg t H.z.  O.$.% I.N.AX3 2 KX2 (.$ K 6X~ # $ B ",
"I C #.v w.r h.e CXG.d + p 9 p o y i g C K G < i.7 KX2.m.= lXt.{.C 3 qXj 0 e } t 7 N.Y.7 &.t Y.2 y ,.b.% { 2 % BXw H D BXy 7 9Xt ",
"r '.q.j 7 $.2 l *.PXY.K t j I R.BX6 JXT D.;.+X5 #.A 3.,XG b n r r.@ '.,.,XW f D 7 j gXX o 2 9XN Y t.t o R.X.y S.6 X 3 t Z 5Xq.@.",
"L $.$.G 3 7 6 w { 6 C.G uX0 P o.6 t 8XC 2.J.u.w.G m = (.< V.q < LXA.cX5 W :X2 e 1 $., 6 m.(.j Z.t W N 3 $ + K V %.j.8 U tXSXH G ",
",.3.- ) b S.W t 6 2 ( = i.A U.Q ;Xc.@ u T % 3 7 < ,.d iXX 2 l.K.; E E  Xr < G J K M l p n tX= 3XX.*.$ 3X:.7 y { C O.2 5 AXgXv m ",
"0 _.tX2X@ F.<  Xe S.~.I : uX6 &.7.y ^ '.hXY { + { 4 z.A Q v.i.0 = $.2 G 3.&.y.H $.C % ; ,Xt . # H Q.y r 5 t -.,.y.9 d.7 v < N W ",
"N G W.7 V.=.s ].! M ] 2.1 G kXM e r.f E 5Xe ! 8X0 %.6 Y 8XV.1 } G w 2 N zX,.5XH ) $ - 3 . q.Q D ].w ,.3 H 2 5 ].h.W e 3 y 5 ; | ",
"w.z.3 M j ^ 1XB R.w...z.Y 7 ,.G kX5 yXO.k ) 1 VX! <.q.( V 6 2 2 P &.>.j p.( C _ k mX~.< &XxX1 w P Z w ; < = 5 H !.U.X l.I.k.4 : ",
"4.1 t.y t.; 2 N.p.:.C N (.}.BXX j.2 K +XJ e w Y % r $.U 9X7 AXr.V.=.u.-.2 < 2 I iX7 zXuXx.V y . h.k [ BX2.SXI w k N (.; Q.i K 3 ",
"p H vXY 1 3 e U f s %X$., o.! Q a.tXG r i.9.i 5 @X;.( lX; 0 > @XuXE 0 m.k +.W.3.{ v 4 K.1 < P.{ w _.L I u ; 6 { [ ^ 2 }.$ -X, X ",
"5 R 4 .Xw.m e.e ].N F y R 5 , k O {.3.'.@ :.; 7 V b.).K .X- @.2 !.m.7 7 o.5 M CXj *.D.~.5 P -.2 8XP $.tXe.l f C ; 2 7 ; % k @XbX",
"_.Y ]./ $ q ; H E KX.Xu.3.G , P ).t + k 1 W.= u :XH  Xb.ZXwXK * @X6 < e.Y aX].p 7 8XH $ b.l.= y 5 5 +.N.  L m w ;X7 ; t 3.[ / V ",
"sX!.z.SXtXF 5 H F N 7.u <XiXj G 5 .X) k.h.D X.t.t 1 b .XG.q 4 *X; H NX- 8X+ F < ; }.I D Z.P.y.= K !.$.q.@.$.I.p.N G * Q.+.T.W.>X",
"W 8X$ Y p }.Q = * O 1 L R d.W.<.t.mX'.G I t U.7 Q B 6 # ZX!.7 K d.Y jXt 0 w y l @XK.+ D t '.m F H.<.5 1 C t C S.#.& H 8X| Q.nX.X",
"> * w.M.V $X6 ; + ;.2.3 0 3 aXrX4 XX}.D 2.G.; ].DXN P $.uXV.z : vX2 -.Z.m ; _.R h ~.~.j % ].h.= $.y ; hXq P (.3.2 J o.u JXcX;X{.",
"W s L n.7X# Y G 4 *.<.%.u L G k n.rXM.p V }.; 6 ; G Q 7 2 r >.r w K ) K.2 3 b.h.:XI 5 Q B O G b.p 4.B.BXD 0 w C 5 $.L 1 j N A..X",
"( (.N 3 V >.7 @.G.MXSX).4 [ 2 x.* t O z V.= gXxXj tXe t ' 7.4X5 D.a.#.< 7 t 7 ].H hX> % P k.H Y.fXL NXmXt   3 G g O ; Y V dXN E.",
"3 tX8Xk.R LXO.2 t.e 4 OX2 m.2 { O.'..XV.I 5 F tXD y a.2XC.N V.7.D.1 D j t % zXk P.2.j 3 N 7 j.u P L $ - VXU U G.qXz w.t.; q +.A ",
"t A ,.NXR : 3 w.Q B O D 4 6 ~. .@.7 U H W G LX6 v t 2 '.|.3 ' q 7 H M P 1 O W 5 7X4 5 q N W A.B /.|.8X*.B.; ) j.; m.G b y.:XN.y ",
"NX8XNXa._ { i   n.2 Z v . r 4 $ ~ T t H I BXH ;.m V A 3 ).H 7 c.&.N N gXaXX t M.`.7 o.; '.K P.h.B D p O.,.D +.e ; D 3 %XnX6 5 OX",
"G vXZX+.'.7 cX} M y.@.7 rX2 y.t 7Xu G , #.7 j F ; m a.).+.v.*Xy.'.6 D 6 o K - r < $ t { 6 % +.1.) 7 ! rX:.w r.d.- 7 0 { ; v NX_.",
"R yX+ w 6 rXmX>X7 N.Z.k.m n.7XQ xXd.C eX6 2XrXC +X3 VXf 7 W L P.w @ > b.Y AX`.3 { dX[ X.VXX D l 3.y T.DXN A t + ~._ _.3 ! 3.# 1 ",
"#.U.i 1 H SXh.kXY >.t $ W 1 t $.2.h.3 k !.+.; h.Y + D j.- N = 7 jXa $.r q < aX).0 3 SXE.P.6 % p 3 t ~.v f G 4 1 3 @ ,XkXqX>X X4 ",
"2.m.> y 3.M :Xt w 7 t s.5Xv K.k 3 s.< D R NXjX& u m Q { 8XJXL {.N 5 #X*.p @.@ F xX% f BXD.W _.[.V ,.M |.N.# Y I y ; f -.&.].0.T ",
"[ aXI.6 W e 7 2 G ].b.Q &.C.].2 O.6 3.S.M t.c ^ 7XF l k.t.F l.L.L B ,.1.2X:XG V $.p 7 e.qX~ ;.q v.$.r F -.u HXD ) / ) Y 4X$ $ (.",
"n k v.( ~ _.< - 2 CX^ N O.5 >Xg Y ! L M [.W & !.! z.P N.k.-.o &.H  .&XiX.X2 qXm w { ,X~.%.0.$.o.3 + W.+XrX; H ,.$.! LXk M.y w j "
};
