/* XPM */
static char *result[] = {
/* columns rows colors chars-per-pixel */
"64 64 255 2 ",
"   c #461B0D",
".  c #571B0B",
"X  c #4B1C18",
"o  c #551713",
"O  c #551C14",
"+  c #5B1D14",
"@  c #541E1A",
"#  c #5B1D1B",
"$  c #63170E",
"%  c #641C0D",
"&  c #6B1B0D",
"*  c #771809",
"=  c #751C0D",
"-  c #7C1D0C",
";  c #681716",
":  c #641C13",
">  c #6B1D14",
",  c #631D1B",
"<  c #6C1D1B",
"1  c #781511",
"2  c #741C13",
"3  c #7B1C14",
"4  c #731D1B",
"5  c #7C1D1B",
"6  c #5B240D",
"7  c #4C2316",
"8  c #552214",
"9  c #5D2214",
"0  c #5C231B",
"q  c #58261A",
"w  c #4F331D",
"e  c #65220B",
"r  c #6D220D",
"t  c #75220D",
"y  c #7A260D",
"u  c #632214",
"i  c #6C2214",
"p  c #6A2B15",
"a  c #64231B",
"s  c #6C231B",
"d  c #64291C",
"f  c #6C2A1D",
"g  c #742314",
"h  c #7B2214",
"j  c #742A13",
"k  c #7D2A14",
"l  c #73231B",
"z  c #7B231B",
"x  c #742B1C",
"c  c #7B2B1C",
"v  c #713317",
"b  c #7A331B",
"n  c #571F22",
"m  c #681D21",
"M  c #781E22",
"N  c #5A2824",
"B  c #572F2B",
"V  c #6C2423",
"C  c #642B22",
"Z  c #6C2B23",
"A  c #682728",
"S  c #732422",
"D  c #7C2422",
"F  c #742A23",
"G  c #7B2B23",
"H  c #77282B",
"J  c #6C3226",
"K  c #733323",
"L  c #7C3324",
"P  c #76372B",
"I  c #7D322B",
"U  c #682932",
"Y  c #772A35",
"T  c #6A3636",
"R  c #793735",
"E  c #744B2D",
"W  c #796C3B",
"Q  c #792A4A",
"!  c #7D3B45",
"~  c #67325D",
"^  c #703551",
"/  c #6F4A53",
"(  c #796A49",
")  c #775E6A",
"_  c #821B0C",
"`  c #8B1C0D",
"'  c #951A0D",
"]  c #831D13",
"[  c #8B1C14",
"{  c #871A19",
"}  c #831E1B",
"|  c #931D14",
" . c #961D19",
".. c #A91D1A",
"X. c #B41E18",
"o. c #83230C",
"O. c #86270C",
"+. c #98260B",
"@. c #8F310C",
"#. c #832314",
"$. c #8B2414",
"%. c #842B14",
"&. c #8B2B15",
"*. c #82231B",
"=. c #8B241B",
"-. c #832A1C",
";. c #8B2A1B",
":. c #942415",
">. c #9B2313",
",. c #942A14",
"<. c #9D2A14",
"1. c #93241B",
"2. c #9A241C",
"3. c #932B1B",
"4. c #9C2B1C",
"5. c #84331B",
"6. c #893718",
"7. c #8B331C",
"8. c #983519",
"9. c #9B341B",
"0. c #AC2E0D",
"q. c #A62817",
"w. c #A42B1B",
"e. c #B42919",
"r. c #A83619",
"t. c #B6371B",
"y. c #871B22",
"u. c #9E1727",
"i. c #A71E20",
"p. c #832423",
"a. c #8B2522",
"s. c #832C23",
"d. c #8B2C23",
"f. c #862A2A",
"g. c #972924",
"h. c #833323",
"j. c #893726",
"k. c #84332C",
"l. c #933224",
"z. c #9B3324",
"x. c #943B23",
"c. c #973729",
"v. c #882936",
"b. c #972A36",
"n. c #873936",
"m. c #963A35",
"M. c #A52A25",
"N. c #B52B25",
"B. c #A73725",
"V. c #B63A28",
"C. c #AF3035",
"Z. c #AA3831",
"A. c #CE3218",
"S. c #CC3225",
"D. c #C83826",
"F. c #8C451B",
"G. c #984319",
"H. c #AA451B",
"J. c #B64C16",
"K. c #884626",
"L. c #984628",
"P. c #894638",
"I. c #994834",
"U. c #925734",
"Y. c #A74527",
"T. c #B74529",
"R. c #A75628",
"E. c #BB532A",
"W. c #A84837",
"Q. c #B74836",
"!. c #A95736",
"~. c #B65937",
"^. c #9F6B24",
"/. c #AC6733",
"(. c #BA6637",
"). c #C74719",
"_. c #D05419",
"`. c #CD6F18",
"'. c #EF6F18",
"]. c #C74826",
"[. c #D3522F",
"{. c #C94836",
"}. c #C65836",
"|. c #E64823",
" X c #C66838",
".X c #D76837",
"XX c #CE7133",
"oX c #E56A31",
"OX c #883944",
"+X c #963945",
"@X c #903151",
"#X c #AD3746",
"$X c #8E3969",
"%X c #974649",
"&X c #8E504F",
"*X c #AE524F",
"=X c #B65644",
"-X c #916B4A",
";X c #AC6847",
":X c #B86948",
">X c #B46F52",
",X c #97526B",
"<X c #B6466F",
"1X c #976D6C",
"2X c #B46C6C",
"3X c #CE564C",
"4X c #C96747",
"5X c #D06F4D",
"6X c #D97849",
"7X c #D7615B",
"8X c #C9785A",
"9X c #DA7758",
"0X c #E87751",
"qX c #C86F64",
"wX c #7EA271",
"eX c #DD982E",
"rX c #EE8E33",
"tX c #FCC730",
"yX c #918B51",
"uX c #AE905B",
"iX c #B19270",
"pX c #A2AC76",
"aX c #DA8648",
"sX c #D98856",
"dX c #D79150",
"fX c #EB8E4E",
"gX c #DBA15A",
"hX c #F3AA55",
"jX c #D18D70",
"kX c #EB926D",
"lX c #E7986A",
"zX c #D1AA72",
"xX c #F9AA68",
"cX c #EFAD70",
"vX c #F8B775",
"bX c #FBC870",
"nX c #FDD575",
"mX c #FFE06A",
"MX c #9A6386",
"NX c #A27390",
"BX c #C47284",
"VX c #AC8280",
"CX c #D99A99",
"ZX c #D9AE8D",
"AX c #F8B886",
"SX c #EDB292",
"DX c #DCB2AF",
"FX c #FDC98B",
"GX c #FAC496",
"HX c #FDD895",
"JX c #F8D3B0",
"KX c #FFE6A8",
"LX c #F3CFD0",
"PX c #FEE9CB",
"IX c #FCE9E9",
/* pixels */
">XV a.U u Y.m.t :.bXf |.m.P Q H *.%Xh.u /.c.=.d Z c.<X<  .%Xz %X[ X L.cX&XAXlXC x l ,.D hXb.C < z g.W., 5 kX] E.j.O.l s I ;Xd &X",
"V 5X-.r j.` u lXF a i x / a l j 4 9XH 2.b.z e.6.!.,.V xX4 M.M.S S I M.m.P.#.i H z.JXgXr.Z k.p c *.#.# H 5X` B.#Xd.J.d @ [ k 1.j.",
"z.j i }.P.i 6Xl a %.=.8.,.n.jXh xXV.(.Z V.G + 9 R.vXV r.,.s 4X< -.k k l [ :XN 8 r.c.9.s Y f d.A ,.L.Z.4 R ,.,.iXa C I S s 4 Z sX",
"] 0 x y.b s d T.# uX+X9 O.& :XvXk.s f.V d u Z XX5 >.vX+ A fXf + >.g +Xi M P.Q.u i x.:.,XsXr s d n.f SXf !.[ n.l G c &XU NXc.c.P.",
"L %.Q.#XH 5.Q 0 0 q l P.#.G z.).-.j , x h 8.S.s.a lX1.m < # v.M ,.V.&XsX=.Y.$.E.D j.i (.w.u n.f a.x h NXr : R.s !.8 S j < 0.c a.",
"s j 3.fX;.| f L s #.d ;.z.< g } : N.vXa.f HXz ~.>XD.U.*.P %.XX5.0 l I m c u d R D D #XA =.w.d.T l D oX= !.;Xp.kXj 9.h ,.m a.G s ",
"*Xl nX4.x.7X< #Xm Y.G &.H.5.I.l H H ] f y 3 4.w.d W.i l  Xh v.%.4.3 h fXT.@ G c u 5.&.;.W.P.].PX*XB.I.Z.O.l u f w.7.D ] c.z =.K ",
"*.m.#.A.*.j }.(.V l.z.h %. X*.' < l  .i , ` XX$.q &X4 L ~.R.4.5 c &X5XkX/ I 4.- %.L.H p.J.: S | z LXT.F s c 5XbXd *Xl *.9.: P l ",
"s.> 3 l 3 =.g.l.# + q d : 3., o a <.O.g u F 5 D ) -X-.[ m C a.f ZXc.Q.$.B.sX< 0 l 3.C.l l.' Y ' :.P.n.3.s V i -Xr.-.a g.-Xs G  .",
"M 4 &.+ fXg.q.O z r.5Xz q. .<X@Xv.>Xs.} Y.Z *.C.i S.s.-.Y l h.5 X.PXkXkXc 7 Z.# A z D C o.f.i z a fX{.K 8 s X z Z @ 7 4 o 4 -X&.",
"f f.-X} n -.B.aXb u oXD =Xl p x c f V., k I.HXr u .X> uX< U.8 3 xX3.:.OX< | g B V *.% =._ O.q zX].s.H F sX!.j i s l OXI.X 0 J G.",
"w.-.S t.rXu w.S i G Z.{ , Y./.G Q.x <.[ s i ].3 O.O j _ p 8.-Xp 8 Y.8.pXh r Z./ GXy o.c sX!.Z d < : _.;X, M C Z G f / x.C ! V #.",
"c [.+ i.l ; w.k.: ,.%XH S.f H < hXk.z &.3.r. .s.} =.>Xa k g.l.' : P.a.V.U oX` 7 . ` _.6.-.r.6.; q X H.T.g { S g fX{.x M.>X4XG z.",
"8 ~.*.& > _ V.: f.P 9 D > 5 *.l Y.d.j.5 g m.4XD m.kXm.s _ b , eX_ F V g M l.P.0 , , : ;.e P & R # x.Z.s &X-  .N.i | 1 < m n.7.L.",
"Z p F.m.= 5.n.H S.,XlX*Xs c 3 XXo > >.c i z S P T.=.:.Z f.1 T.V 3 !.[.Q v.[ t.O.X B M.T.d h k..Xc B u 9.s # S 2 9.p g : f.{.> u ",
"6 3 gXg E.Q.O.A kXO + aX%.m.*.B #X< P @ G t.'.@.H s > A FX= + ~ 3.!.M 5 < z f ..y + &X6.b 9.> u b j n.s.1XB.k f s.8 D 0 -.A F %.",
"q...& H.= S *Xz.c.^ l.g.S kXl ~.=.F H F.*.h 0 MXS ..:.`.g M.y FXq aXx w.z.3 4 ;.8X+ q X 0 = < -XN p ;XP (..X9 z MX` u >.a  X: =.",
"w.r y 9.a bXDXR.9.rXZ E.L.D S   { y.].4.+ > $.*.}._ 9.4.z i *.O J t.< 5.c =X@.4 n x.R z E $.: s  XL.l r._.z.9 ZXV h d g d u v 3 ",
"_.s z hX}.nXW./ xXx Q.3 F _.%.c , l q >XW JXb =.lX6.D !.l : h y l ,.5.9 c L l [ f.=.$.8 o.8 k v 0 - eX<.SXu.9 j | > d s.h & -X} ",
"{ z.I.oX8.6.*.I g -.#.F <.$.hX% k.x 9 p.1.4 z cXq.J.ZXy.9X&X3.Y | C dX| *.p.8.).l V F 8 AXt.0.x v N E &X~ lXW f.Q.:.+ G jXp.h.D ",
",.V L.] k A.: =.,.5 G $.].g.2 3 < ` w 4 M 6.j *X*.= f <XG T s Y &.M v./ V.p.= i : e.Q ].f.0 f.r.m.Q.`.1 OXn.:.hX5 u 4.*.N V vX7.",
"N.l y Z.9Xh 7 2 a.0Xz . 2.[ i X 3 G l 4 #.7.l *.3.l q.4.9.r.5X- a f e S.9 z.2 | # B.xXR c.B U.6 , k.Y / R y.s 3 p.T..X,XM.1._./.",
"8 -X1.R r.5XV M ,.6XI } #.I Y., .X_.l 3.w.V %.N.z w.x.O.P _ { S 3 > 2 Y S G.%.N C C [.B g l p.jX{ . }.G GXsX] j x O.y.@.l l n.~.",
"b.: m.I.B.}.- g #.vXp.o lXS.6.3 c Y.a d # *.Z &.i 6XD #.OX, E T x , f p e H._.N : C # W.# B.AXe.9X] }.V M i a bX8 b.> *X2 lXA 4 ",
"lXjX;.i R j.3X@X}.a g.r.j m.2 c.} aXz O.0 G z @ < a.[.:X, p.| l.c.z c i 6XI.0 #.s #.(.s 8 K ; o :.r.IX5X1XZ 0.: 2 O.4 i _.;.V j ",
"0 , i l 6X4 | - # D.B.#.$Xx 9.< Y vXM.3 s.I.- A w.z 9.lX- g : .X4 g.P *X> qXg p > +.i Y.] z 3Xz x z cX3 C i U z S KX4 f V gXp.,X",
"N % : XXR.-.q =.d.J 9 G *.4Xq U r.2 A O. .A W.4 j b j j 0 / H L N.s mXe l O.t.d - : o.T &.I > , j.#.z.d d $.k g # d R.h.q h 4 =.",
"9XoXg.C c M H L H.1 =.M t.H 4.: L } g R 4X4.h.i <.O.|.f uX^ &.= Y.0 O fXV 3.L.> ..] 3 h i pXg &X> & s.: k.c.h *.a.n.5.s.;.] X.6 ",
"Y [ B.d.b 3 1.0.jX<.5 fXxX; f.l > < ] p 5.^.;.& x.l.0XT.3 [.z s > $.! q.# d 1.bX< f KXj.M.M =.d.G.i < ] p P.2 5 E.7.> ~.#.0 f ' ",
"4 y s.m.vX=.CX> q ,.- $ > G f 1.S : uX] g.# s v W.8.U vXj 2.D.5 z 3 P 7.3 0 c `.z 4 gX#.q q.9.>X/.v <.8.>Xz q ] k.= T.m.O.G u F.",
"@Xm.JXD d #.s x l @X) 1 < H k.d P [ . G 9Xg T.= X x z.> , h +XY r.=Xi ,XV s.d >.qXf.4 g.P  XS Z I s A i ,.t z.C.3 ;.p d w.4XaX] ",
"e.CX<.Q.x.m.9 xXJ.+ y.$., 6XnX+ g g.hX; *.; & U $.#.%.a.tXC m.0X'.-.l fXD N 1 y cXz a.!.OXC 9Xp.2 GXiX# B.A.% -.h + D  .e.FXm |.",
"J :.c., g.} b 4 / :Xt *.$ ] >.a k.= > i h *.A [.z.l.a.d.3 OXc (.N s a ] U.z.4 : &.3 -.5 s ] VXs . [ @.2.G 1 b.rXm  .f 4 g.r.=.l ",
"z r Z 2 g x L. Xx y.s s  X&XX T.l &.L 6.h ] H h F t.&.NX@ qXa.t.d d.k.OXlXe g =.% k -.s 1.9 4 a *X` % K..X= A.N.4 5 Y.B.=.+.V.Y ",
",X2X$.m R.s.R L cXH 4.V.A.GXg vX{ [ > A 5 C d h G j., s } & ! 4 &.w.6.=.CXl.B.'.Q 7.s % zXvXg &Xw.[ h ] $.eXh T b.O.[ OX: z l d ",
"i Y n.IX1X] .X%.I D F M.R b ,.{ 3  .a _ $ l 3.e.dXxX% g.z.D d  .1.: f.E.].r 5.i dXk E.LX&.y @.).` ;X2 :.x a ; R 1Xh B.s l =.9.s ",
"CXn.&Xu , Z &.d.b e F D P @ 1 , I W.L., # h f.yXG =Xy }.s 5Xn l kX@Xp.q.n.a.j =.s P.g.4 B.T.C z 6 d.x s > 0XiX&.s 2.yXxXC [ 3.4 ",
"0Xd ;.hXa Z ;.z aXB.<X|.CX$.a.z a > 4 _ !.3 F.9.3X*.&.6 cX=.,.[ u 9. .h I x :X+X+ 1 1 O }.u # j.8.3.MX$.r.z.#.8.R.1XF V + 3 6 !.",
"i $.f.B.m.'.vX, # n l.G l g y I.v d F _ z a.n.a.+.8 >.}.sX3 lX{ q.: *.;.B.l n cXR.3 W.1 W.l ;.4 tX6 -.R r.q   / = k.7.r i 3.. ].",
"$XF l.l n.l.HXN ( c., A m iXlXHXjXY.R u ] *X$ Q x.g c aXz o.z A.~.;.N.3 1.d c.y I.M.u i F v 2X4 f.^ v.# .Xc.^ 1Xp.,X8 H.KXx x.m ",
"v.jXs.q.=.).9.+ L.j.&._ N H (.hXH w.g f A.q 6.%.*.{.*.y  .. %Xg.V.*.HXr ] e u R e >.9.k.] ] %X1 i G l $.lX;.3 l.p., [ x.i r.N , ",
").F l O.D u Y.& 3 k.h s &.0 w.K.u b.y q.c +.g.f.a w.a j h + S < ;.$.8.G sXu q.` oX3.y.>XM b._.} g 9 ^ > d i w.@Xy N x.$.; t.5X4 ",
"G d.> 0 s.l.: Y.*X-.l W.K 5.PXI.d :Xg.z.k.z K .X-.;.%XO.qX=.FX<.V > }.p ,.Q.K z P ].E ] h 3 R z + n.2X0Xa 9 L.t p.< kXs 0.t.7 #.",
"3 3 % &.q.e.%.M V.3.p.>X@ h.9XhX& I z < AXu j 5.&.A.h.J.z f.=.l P #.ZXl : = * &.>X_.c.1.O.fXG 2 h U u = s %.t.i . C a.c H.#.N c ",
"=.3 , =.g.S l I.W.M.w.D zX;.g 0.g.2 p > =.sXGX*.4 iXi J &XsXJ.c Y B.t.g cX3.Y.m &.HXh z.< . `.%Xh 8.< #.l.s.o.p f N.y cXXXBXW.m ",
"f : XX5 , <.M e #.w.#.E 5 2.J C i 5 E OXM.d g DX>Xk.4Xg $.AX3 * Q.j 3.g { ] Q |.. 4 , >.# oXf.8.HX< =.D.5X@ 9X1XY.8 t e 2.n.l.cX",
"AXP.F s p.a.: X j d.0 q o 8 z 7.&.D > d =.7 mX3.z c !.- AX] c =.E : % AXc ] @.*.sXk q.: > Z 6 < % E.a w., 0 J A !.` l $X9 l I K ",
"0 h 3 P.' , R , *.U.N 0 2.8XH Y @ F y g rXR.K.;.s Z.Z.P.V l c U.+ * s @   %.g Z B +.G # + 4 p.U g > ` r.6.z.3 l.w.=.hXx y O z.#.",
"}.9Xl =.c r.G.4 @ > W.&.D '.2 k.D s } z 0.F s GX0 L.h D %.;.3 h I.] nX. 9.2 >.V % c.M vX, l.+X@ 9X*.0.A q.+ 5 6.#.E gX+Xc z &.CX",
"5 i D = Z.z 0.# ;.M :Xz > , + +X. R q.8.S N l z yX9 { u 0 ZXN v *., CXK : i 3 m > < :.] Y K.+ > _ r.c #.M.a S V.M | d y l G [ @X",
"3 =Xi :.5 3 z.[ ] # %.3.S.K j  .L.-.+ > ` !.*X$ b s D 3.u R n.l r ;.0.7 =.4 z.vXK.y 8.#.2.4 $ ( K 5 D +.+ y 8 t , C.4X#.l.2 z & ",
"=.& V K.1 `.gXG *X' , a.3 :.[ =.c , L : ;.g Y.*.d.z :.g.c _ $X..F z.m.W.fXu.e.p.rX9 t mX6 ; 8 %.*.r % E 0 V.bX}.}.< c *.aXs.< , ",
"q.$ l =X8.9 l.z.j.XX& B.} j.p.U z g Q.b p =XpXN ] + e.a d F vX6.; h S < 2.] 5X8.c xXl e 3 <.x G.*.s.=.*.0 9 Z.:.y I z M.8.. GXg.",
"s ~.*.#.9 g.a.D l #.2.e P d.L.p s.3 s N.g.8 u %.h >X7.| i O.2 c v.1.OXvXcXL.1 -.d -.P FXz d , ;XJ.l k &.g 5.l D.T LX5 >.{.> 1.t.",
"< k.x z )._ u . 3.G bXh r.& F 4Xo.h R.o   +.+.u *.$.u > Q = 2 M.).l h G a l.,.l l F I.z zX= { j.f } # &.d R f a l u B.F 2 h s._ ",
"f x a.!.L.a x.#.u OXiXkXG.M.i q G ~.;.> m &Xg B.0 { s k.>.v.H y.z X.> o.I s l G h AXL.:X3 H wXxX_ ] :.8 ;.-.#.V.z ; c dX<Xj.>XR ",
"O s D c.S.9XCXf ZX] D > , h : iX=.2.R.r.h M.3 HX< 1.& @ g h E.JXI 8XrX[.rX; G !.@.*.x 7.V I @Xk.K d MXl.1 z.s #.f.4.D.*.6.:.T.g.",
"P.0Xp.S b.A 4.fX5 4 ,.sX9 Y 5 { :.Y c o.y $.LXL 1 s .XKXf %Xd M t y F s jX; .X} [.h O u 5 K s lXq.&.Z N.z v g h g y c.i h i +.1.",
"kXj ,X<.vXN x.c.> sXq.g H l.a z - i D z 3.c -.$.` _ rX:.F.9 hX1 F 7.g.*.:Xu 4 c U S *.c.M.0 -.nXN z s.I.*.OXM J.2X`.X b.b. .> XX",
"j e &X%.] AX XC z.l.] c { g n.n.6.} 2 &.% Q.N.C.d X.:., T.6Xc.5 B.O.1.;.] (.q W 8XuXl K l.c.N i 4.=..Xu ; e.z >.: ,.g &.g f h v.",
"=X5 a Y ] I.5 #.. h h.p.1 6Xf.l.i U.s H 0 | S #.7XGX$X,XM P. Xw.'.D.=.l Z 3 W.3.M d ] : R.m.X.f.j -.5XC % l j u O 3 }.D.1.S.$.8 ",
"V.-Xc FXxXM.6Xp.z I.i = 5 g.zX=Xk.%X8.zXU.Z l.k 3 H 4XY.K 9.3XsXW.,.] ; l hXl l P.Z  Xl R -.B.: :.xX1X;.:.FX~.t | g L.[ cX6 s T.",
"s.d o.s k.) ` . #X2.` q.Z l m > Y JXO U K 7.h xXP.I.a.1 =.h :.5 x # g.DX1.` W.tX~.*.s G.r.s 9 t.z x k.v N W.+ 2 0 nXxXo.fXs g Z ",
"C a g.l.G D W.g E i >.V < h 1.f.l I : 3 ;.l F q h.yXs ].F E.z.V.> I z.,Xl 4  Xz 0Xs.3 t.>Xx r.P.# : - . z 3 g Y 5 J.5 lXY oX2 g "
};
